HIERARCHY
ROOT Hips
{
  OFFSET -187.679 86.5976 -156.378
  CHANNELS 6 Xposition Yposition Zposition Zrotation Xrotation Yrotation
  JOINT LeftUpLeg
  {
    OFFSET 8.64259 1.95398 -2.38835
    CHANNELS 3 Zrotation Xrotation Yrotation
    JOINT LeftLeg
    {
      OFFSET 43.7702 0 0
      CHANNELS 3 Zrotation Xrotation Yrotation
      JOINT LeftFoot
      {
        OFFSET 40.6238 0 0
        CHANNELS 3 Zrotation Xrotation Yrotation
        JOINT LeftToeBase
        {
          OFFSET 12.7242 0 0
          CHANNELS 3 Zrotation Xrotation Yrotation
          End Site
          {
            OFFSET 0 0 0
          }
        }
      }
    }
  }
  JOINT RightUpLeg
  {
    OFFSET -8.2249 1.95398 -2.59336
    CHANNELS 3 Zrotation Xrotation Yrotation
    JOINT RightLeg
    {
      OFFSET 43.5653 0 0
      CHANNELS 3 Zrotation Xrotation Yrotation
      JOINT RightFoot
      {
        OFFSET 40.6238 0 0
        CHANNELS 3 Zrotation Xrotation Yrotation
        JOINT RightToeBase
        {
          OFFSET 12.7242 0 0
          CHANNELS 3 Zrotation Xrotation Yrotation
          End Site
          {
            OFFSET 0 0 0
          }
        }
      }
    }
  }
  JOINT Spine
  {
    OFFSET 0.165834 0.87714 6.61349
    CHANNELS 3 Zrotation Xrotation Yrotation
    JOINT Spine1
    {
      OFFSET 7.38963 1.71661e-005 0
      CHANNELS 3 Zrotation Xrotation Yrotation
      JOINT Spine2
      {
        OFFSET 11.9445 1.14441e-005 0
        CHANNELS 3 Zrotation Xrotation Yrotation
        JOINT Spine3
        {
          OFFSET 14.7254 4.19617e-005 0
          CHANNELS 3 Zrotation Xrotation Yrotation
          JOINT Spine4
          {
            OFFSET 10.9679 0 0
            CHANNELS 3 Zrotation Xrotation Yrotation
            JOINT RightShoulder
            {
              OFFSET 2.46616 -1.6653 3.69651
              CHANNELS 3 Zrotation Xrotation Yrotation
              JOINT RightArm
              {
                OFFSET 13.0012 0 0
                CHANNELS 3 Zrotation Xrotation Yrotation
                JOINT RightForeArm
                {
                  OFFSET 28.7848 1.52588e-005 0
                  CHANNELS 3 Zrotation Xrotation Yrotation
                  JOINT RightHand
                  {
                    OFFSET 26.5688 1.52588e-005 0
                    CHANNELS 3 Zrotation Xrotation Yrotation
                    End Site
                    {
                      OFFSET 0 0 0
                    }
                  }
                }
              }
            }
            JOINT LeftShoulder
            {
              OFFSET 2.38034 -1.29275 -3.7523
              CHANNELS 3 Zrotation Xrotation Yrotation
              JOINT LeftArm
              {
                OFFSET 16.3182 6.10352e-005 0
                CHANNELS 3 Zrotation Xrotation Yrotation
                JOINT LeftForeArm
                {
                  OFFSET 27.0901 0 0
                  CHANNELS 3 Zrotation Xrotation Yrotation
                  JOINT LeftHand
                  {
                    OFFSET 24.5451 1.52588e-005 0
                    CHANNELS 3 Zrotation Xrotation Yrotation
                    End Site
                    {
                      OFFSET 0 0 0
                    }
                  }
                }
              }
            }
            JOINT Neck
            {
              OFFSET 5.0226 -0.0266342 0
              CHANNELS 3 Zrotation Xrotation Yrotation
              JOINT Head
              {
                OFFSET 6.69363 2.86102e-005 0
                CHANNELS 3 Zrotation Xrotation Yrotation
                End Site
                {
                  OFFSET 0 0 0
                }
              }
            }
          }
        }
      }
    }
  }
}
MOTION
Frames:	9
Frame Time:	0.0416667
22.4351 97.3517 13.1513 -109.061 -53.2976 -109.186 -170.755 8.441 98.6841 -72.5863 32.0766 8.98736 69.3033 4.66743 -0.360681 10.6786 -7.27627 -0.178315 176.602 5.84866 99.4986 -33.9543 18.349 7.49551 74.8273 -3.24446 -2.51694 13.9961 -3.54742 2.7203 -0.342681 7.79095 -89.4205 11.2928 -0.412197 1.19479 -0.378638 -0.359208 1.21176 -22.9109 -0.752205 1.01569 -2.89828 -0.752205 1.0157 88.3085 -48.5239 -103.593 36.1114 -17.8146 1.87636 -24.3846 -15.2647 -32.3319 -7.5172 -0.148921 -2.87697 -89.7383 -45.9217 78.446 -21.6477 18.4541 -10.5901 9.04299 -3.06677 -5.6335 0.355613 0.017942 0.206822 -1.96229 -3.24592 -20.3057 6.88988 -1.01872 -3.6813 
19.6898 97.704 14.4909 -101.673 -35.9227 -101.013 -176.767 18.1949 96.9088 -73.2531 15.3922 9.6377 71.0866 6.25235 2.27179 6.41415 -8.41696 -1.4326 179.517 2.37997 102.028 -30.8493 3.20778 2.51185 73.6949 -4.12497 -4.30757 13.6647 -3.73099 2.98245 0.432761 7.8562 -89.4362 11.1554 1.12336 1.01246 -0.515437 1.16683 0.962041 -23.0494 0.767143 1.30323 -3.03676 0.767158 1.30324 86.2984 -50.0749 -106.223 26.4756 -18.4995 -7.60856 -26.0388 -15.0238 -35.2014 -8.66966 -0.165182 -2.98588 -88.0845 -44.6794 80.7814 -32.0995 11.9888 7.59004 8.18828 -13.0069 -9.43439 1.80918 0.076592 0.26868 -2.42371 -2.72958 -24.5641 7.88544 -0.159306 -4.11258 
17.6064 97.8996 15.5698 -98.8619 -16.3532 -96.1562 179.113 22.8219 94.4207 -68.2992 12.8821 10.886 74.451 8.39464 3.82044 2.71755 -8.33808 -4.27228 -178.375 -1.36202 102.35 -31.7801 -12.2099 -2.581 73.6 -4.74109 -4.15963 12.796 -4.72836 4.81333 1.23706 8.08409 -89.4076 10.6961 2.73655 0.929149 -0.972195 2.77476 0.807729 -23.5224 2.33079 1.70894 -3.50974 2.33076 1.70893 83.9059 -51.4635 -109.359 19.0566 -18.435 -17.553 -25.7284 -16.464 -33.211 -10.0422 -0.279693 -1.79714 -87.3437 -44.1135 81.8516 -43.2673 16.7876 18.4168 6.97685 -11.0104 -12.5473 -4.08077 -0.14876 -0.8103 -3.75709 -1.90439 -26.1731 8.89068 0.385983 -5.28213 
14.7726 98.1176 16.8177 -98.1826 0.849589 -95.3088 178.037 24.6452 90.0276 -56.7401 21.7606 10.8069 72.6239 6.92436 1.01924 8.67319 -7.84834 -0.7537 -179.685 -5.85495 99.0025 -33.2678 -28.3774 -5.62408 73.5081 -5.55004 -3.61579 12.8105 -4.9849 5.38711 1.75389 8.2802 -89.2813 10.2974 3.82293 1.09781 -1.36821 3.86753 0.928265 -23.9356 3.31615 2.19697 -3.92297 3.31614 2.19697 82.1623 -51.0529 -112.069 16.313 -21.8176 -23.5702 -24.3859 -18.6112 -30.5686 -8.37623 -0.129845 -3.438 -87.9552 -45.2574 81.105 -50.019 24.6274 21.7655 8.32949 -0.65702 -14.9037 -13.0226 -0.100772 -3.85172 -4.58551 -1.68377 -25.8659 8.34489 0.177262 -7.67032 
10.2405 97.8206 17.3047 -97.3336 10.1286 -93.2966 179.128 24.3166 85.6187 -37.72 36.7697 7.95763 69.2342 4.48423 -1.72884 22.1048 -5.76585 7.77687 178.43 -9.60758 95.3845 -33.7471 -39.1014 -7.33337 74.3238 -7.02124 -4.73727 11.6972 -6.00582 7.02599 1.81445 8.23225 -89.136 10.3873 4.01032 1.36587 -1.27797 4.06655 1.18778 -23.8458 3.41437 2.50895 -3.8331 3.41437 2.50894 81.5588 -50.5942 -113.125 14.3429 -28.1184 -26.9182 -21.2456 -20.903 -26.1057 -9.41331 -0.138827 -3.44714 -87.8807 -45.8815 81.3461 -47.2785 26.4641 19.9667 9.42493 1.60883 -16.4968 -11.1419 -0.187443 -2.8743 -5.00622 -2.03737 -24.7345 8.13304 -0.494398 -9.06433 
3.91495 96.6544 16.7401 -96.6151 17.0157 -92.5596 179.118 22.6819 81.684 -27.2884 33.424 4.81893 69.4037 3.81257 -4.65023 21.5425 -6.42568 8.77223 177.004 -13.7634 92.6493 -34.399 -42.915 -8.82522 75.4962 -7.88735 -4.25416 11.5434 -6.78082 8.58843 1.73225 7.99718 -89.0305 10.8538 3.89693 1.56346 -0.812014 3.96194 1.39023 -23.3745 3.24688 2.66306 -3.36189 3.24689 2.66307 80.632 -50.8191 -114.404 14.4643 -33.0994 -26.2237 -16.8519 -21.7738 -20.6035 -8.4415 -0.0470243 -4.60597 -87.9007 -45.779 81.2942 -37.4926 22.6599 15.5103 8.62481 -3.85787 -15.4877 -5.94197 -0.216156 -0.14283 -6.48233 -2.55394 -22.9917 9.23426 -1.60088 -9.50523 
-4.18019 96.3449 14.4251 -97.09 23.3123 -93.8751 178.758 22.1985 77.7634 -36.7499 33.3619 6.95494 67.7438 3.53991 -3.25603 13.729 -7.90608 3.64977 175.582 -19.1708 88.8833 -35.6703 -43.457 -12.884 71.3341 -5.02639 -2.42634 14.6983 -6.68277 10.4676 1.59591 7.74947 -88.6948 11.3409 3.78427 2.21861 -0.326093 3.87821 2.04977 -22.8758 2.94277 3.25344 -2.86318 2.94276 3.25343 80.051 -51.6588 -114.929 17.3243 -35.1971 -22.3882 -12.942 -25.5914 -14.824 -8.38448 -0.0657424 -4.3597 -87.772 -46.9013 81.7135 -25.3273 13.4639 9.38637 8.38871 -10.7045 -10.5626 -1.15851 -0.0544563 -0.524568 -9.44667 -2.59858 -23.5164 9.68871 -2.28889 -9.64715 
-11.2052 96.2405 11.5456 -98.7389 30.2579 -94.4716 -179.264 17.4904 76.6412 -39.9983 28.3067 5.31027 73.6918 6.09647 -2.61764 12.2508 -7.54535 1.65787 171.508 -18.9903 82.3612 -39.4967 -39.1445 -10.621 60.2358 -0.586277 2.21583 29.7181 -1.21364 4.22906 1.40516 7.63796 -88.4441 11.5494 3.52328 2.73891 -0.11934 3.64038 2.58114 -22.6538 2.53785 3.6707 -2.64111 2.53784 3.67069 81.9274 -50.7264 -112.531 22.6187 -35.9926 -16.9898 -11.3058 -23.4911 -12.566 -8.89075 -0.120762 -3.60922 -87.6015 -46.638 81.9287 -18.8441 9.55541 2.73894 7.84778 -20.6182 -6.64043 0.109552 -0.0175972 -1.03186 -10.7907 -2.40861 -23.2249 8.84108 -2.32427 -9.64751 
-15.6863 97.0439 9.4998 -99.9871 40.1775 -92.2477 -178.019 12.1663 77.4818 -37.9838 21.5215 4.62165 77.5037 6.86951 -4.09763 13.0056 -7.84397 2.91924 172.067 -6.03574 79.1833 -57.2844 -24.2925 -8.99967 66.8482 -3.04291 -0.171096 28.5416 -0.977377 3.25637 1.1082 7.71072 -88.6682 11.4188 2.82658 2.36718 -0.250993 2.92799 2.24047 -22.7827 1.98482 3.1069 -2.77007 1.98483 3.1069 83.6644 -49.1852 -110.489 21.7463 -36.914 -14.2273 -13.9959 -21.9891 -17.3768 -11.1783 -0.0944149 -4.17279 -87.8311 -45.8067 81.4093 -16.4512 11.503 -2.0626 6.91165 -17.8596 -12.6085 0.255792 -0.0264619 -1.55973 -9.07533 -0.83912 -20.7154 9.27029 -0.37749 -7.6381 
